<svg width="24" height="24" viewBox="0 0 24 24" fill="none" xmlns="http://www.w3.org/2000/svg">
<circle cx="12" cy="12" r="12" fill="#8E8E8E"/>
<path d="M9.83366 12.6667C9.83366 11.4701 10.8037 10.5 12.0003 10.5C13.1969 10.5 14.167 11.4701 14.167 12.6667C14.167 13.8633 13.1969 14.8333 12.0003 14.8333C10.8037 14.8333 9.83366 13.8633 9.83366 12.6667Z" fill="white"/>
<path fill-rule="evenodd" clip-rule="evenodd" d="M18.9431 17.6095C19.1932 17.3594 19.3337 17.0203 19.3337 16.6667V9.33333C19.3337 8.97971 19.1932 8.64057 18.9431 8.39052C18.6931 8.14048 18.3539 8 18.0003 8H15.3337L14.0003 6H10.0003L8.66699 8H6.00033C5.6467 8 5.30757 8.14048 5.05752 8.39052C4.80747 8.64057 4.66699 8.97971 4.66699 9.33333V16.6667C4.66699 17.0203 4.80747 17.3594 5.05752 17.6095C5.30757 17.8595 5.6467 18 6.00033 18H18.0003C18.3539 18 18.6931 17.8595 18.9431 17.6095ZM12.0003 9.5C10.2514 9.5 8.83366 10.9178 8.83366 12.6667C8.83366 14.4156 10.2514 15.8333 12.0003 15.8333C13.7492 15.8333 15.167 14.4156 15.167 12.6667C15.167 10.9178 13.7492 9.5 12.0003 9.5Z" fill="white"/>
</svg>
