<svg width="300" height="50" viewBox="0 0 300 50" fill="none" xmlns="http://www.w3.org/2000/svg">
<rect x="0.5" y="0.5" width="299" height="49" rx="7.5" fill="white"/>
<rect x="0.5" y="0.5" width="299" height="49" rx="7.5" stroke="#E5E5E5"/>
<g clip-path="url(#clip0_351_796)">
<path fill-rule="evenodd" clip-rule="evenodd" d="M47.895 25.2729C47.895 24.422 47.8186 23.6038 47.6768 22.8184H36.375V27.4602H42.8332C42.555 28.9602 41.7095 30.2311 40.4386 31.082V34.0929H44.3168C46.5859 32.0038 47.895 28.9275 47.895 25.2729Z" fill="#4285F4"/>
<path fill-rule="evenodd" clip-rule="evenodd" d="M36.375 36.9998C39.615 36.9998 42.3314 35.9252 44.3168 34.0925L40.4386 31.0816C39.3641 31.8016 37.9896 32.2271 36.375 32.2271C33.2496 32.2271 30.6041 30.1162 29.6605 27.2798H25.6514V30.3889C27.6259 34.3107 31.6841 36.9998 36.375 36.9998Z" fill="#34A853"/>
<path fill-rule="evenodd" clip-rule="evenodd" d="M29.6605 27.2799C29.4205 26.5599 29.2841 25.7908 29.2841 24.9999C29.2841 24.209 29.4205 23.4399 29.6605 22.7199V19.6108H25.6514C24.8386 21.2308 24.375 23.0636 24.375 24.9999C24.375 26.9363 24.8386 28.769 25.6514 30.389L29.6605 27.2799Z" fill="#FBBC05"/>
<path fill-rule="evenodd" clip-rule="evenodd" d="M36.375 17.7727C38.1368 17.7727 39.7186 18.3782 40.9623 19.5673L44.4041 16.1255C42.3259 14.1891 39.6096 13 36.375 13C31.6841 13 27.6259 15.6891 25.6514 19.6109L29.6605 22.72C30.6041 19.8836 33.2496 17.7727 36.375 17.7727Z" fill="#EA4335"/>
</g>
<path d="M74.5088 24.8242V29.4395C74.3372 29.6663 74.0688 29.9154 73.7036 30.1865C73.3439 30.4521 72.8652 30.6818 72.2676 30.8755C71.6699 31.0692 70.9256 31.166 70.0347 31.166C69.2765 31.166 68.582 31.0387 67.9512 30.7842C67.3203 30.5241 66.7752 30.145 66.3159 29.647C65.8621 29.1489 65.5107 28.543 65.2617 27.8291C65.0127 27.1097 64.8882 26.2907 64.8882 25.3721V24.5337C64.8882 23.6206 65.0016 22.8071 65.2285 22.0933C65.4609 21.3739 65.793 20.7651 66.2246 20.2671C66.6562 19.769 67.1764 19.3927 67.7852 19.1382C68.3994 18.8781 69.0939 18.748 69.8687 18.748C70.8592 18.748 71.6782 18.9141 72.3257 19.2461C72.9787 19.5726 73.4823 20.0264 73.8364 20.6074C74.1906 21.1885 74.4147 21.8525 74.5088 22.5996H72.4668C72.4004 22.179 72.2703 21.8027 72.0767 21.4707C71.8885 21.1387 71.6174 20.8786 71.2632 20.6904C70.9146 20.4967 70.4608 20.3999 69.9019 20.3999C69.4204 20.3999 68.9971 20.4912 68.6318 20.6738C68.2666 20.8564 67.9622 21.1248 67.7188 21.479C67.4808 21.8332 67.3009 22.2648 67.1792 22.7739C67.0575 23.283 66.9966 23.8641 66.9966 24.5171V25.3721C66.9966 26.0361 67.0658 26.6255 67.2041 27.1401C67.348 27.6548 67.5527 28.0892 67.8184 28.4434C68.0895 28.7975 68.4188 29.0659 68.8062 29.2485C69.1935 29.4256 69.6307 29.5142 70.1177 29.5142C70.5936 29.5142 70.9837 29.4754 71.2881 29.3979C71.5924 29.3149 71.8332 29.2181 72.0103 29.1074C72.1929 28.9912 72.334 28.8805 72.4336 28.7754V26.3765H69.9185V24.8242H74.5088ZM76.2354 26.6089V26.418C76.2354 25.7705 76.3294 25.1701 76.5176 24.6167C76.7057 24.0578 76.9769 23.5736 77.3311 23.1641C77.6908 22.749 78.1279 22.4281 78.6426 22.2012C79.1628 21.9688 79.7493 21.8525 80.4023 21.8525C81.0609 21.8525 81.6475 21.9688 82.1621 22.2012C82.6823 22.4281 83.1222 22.749 83.4819 23.1641C83.8416 23.5736 84.1156 24.0578 84.3037 24.6167C84.4919 25.1701 84.5859 25.7705 84.5859 26.418V26.6089C84.5859 27.2563 84.4919 27.8568 84.3037 28.4102C84.1156 28.9635 83.8416 29.4478 83.4819 29.8628C83.1222 30.2723 82.6851 30.5933 82.1704 30.8257C81.6558 31.0526 81.0719 31.166 80.4189 31.166C79.7604 31.166 79.1711 31.0526 78.6509 30.8257C78.1362 30.5933 77.6991 30.2723 77.3394 29.8628C76.9797 29.4478 76.7057 28.9635 76.5176 28.4102C76.3294 27.8568 76.2354 27.2563 76.2354 26.6089ZM78.2358 26.418V26.6089C78.2358 27.0129 78.2773 27.3947 78.3604 27.7544C78.4434 28.1141 78.5734 28.4295 78.7505 28.7007C78.9276 28.9718 79.1545 29.1849 79.4312 29.3398C79.7078 29.4948 80.0371 29.5723 80.4189 29.5723C80.7897 29.5723 81.1107 29.4948 81.3818 29.3398C81.6585 29.1849 81.8854 28.9718 82.0625 28.7007C82.2396 28.4295 82.3696 28.1141 82.4526 27.7544C82.5412 27.3947 82.5854 27.0129 82.5854 26.6089V26.418C82.5854 26.0195 82.5412 25.6432 82.4526 25.2891C82.3696 24.9294 82.2368 24.6112 82.0542 24.3345C81.8771 24.0578 81.6502 23.842 81.3735 23.687C81.1024 23.5265 80.7786 23.4463 80.4023 23.4463C80.026 23.4463 79.6995 23.5265 79.4229 23.687C79.1517 23.842 78.9276 24.0578 78.7505 24.3345C78.5734 24.6112 78.4434 24.9294 78.3604 25.2891C78.2773 25.6432 78.2358 26.0195 78.2358 26.418ZM85.8809 26.6089V26.418C85.8809 25.7705 85.9749 25.1701 86.1631 24.6167C86.3512 24.0578 86.6224 23.5736 86.9766 23.1641C87.3363 22.749 87.7734 22.4281 88.2881 22.2012C88.8083 21.9688 89.3949 21.8525 90.0479 21.8525C90.7064 21.8525 91.293 21.9688 91.8076 22.2012C92.3278 22.4281 92.7677 22.749 93.1274 23.1641C93.4871 23.5736 93.7611 24.0578 93.9492 24.6167C94.1374 25.1701 94.2314 25.7705 94.2314 26.418V26.6089C94.2314 27.2563 94.1374 27.8568 93.9492 28.4102C93.7611 28.9635 93.4871 29.4478 93.1274 29.8628C92.7677 30.2723 92.3306 30.5933 91.8159 30.8257C91.3013 31.0526 90.7174 31.166 90.0645 31.166C89.4059 31.166 88.8166 31.0526 88.2964 30.8257C87.7817 30.5933 87.3446 30.2723 86.9849 29.8628C86.6252 29.4478 86.3512 28.9635 86.1631 28.4102C85.9749 27.8568 85.8809 27.2563 85.8809 26.6089ZM87.8813 26.418V26.6089C87.8813 27.0129 87.9229 27.3947 88.0059 27.7544C88.0889 28.1141 88.2189 28.4295 88.396 28.7007C88.5731 28.9718 88.8 29.1849 89.0767 29.3398C89.3534 29.4948 89.6826 29.5723 90.0645 29.5723C90.4352 29.5723 90.7562 29.4948 91.0273 29.3398C91.304 29.1849 91.5309 28.9718 91.708 28.7007C91.8851 28.4295 92.0151 28.1141 92.0981 27.7544C92.1867 27.3947 92.231 27.0129 92.231 26.6089V26.418C92.231 26.0195 92.1867 25.6432 92.0981 25.2891C92.0151 24.9294 91.8823 24.6112 91.6997 24.3345C91.5226 24.0578 91.2957 23.842 91.019 23.687C90.7479 23.5265 90.4242 23.4463 90.0479 23.4463C89.6715 23.4463 89.3451 23.5265 89.0684 23.687C88.7972 23.842 88.5731 24.0578 88.396 24.3345C88.2189 24.6112 88.0889 24.9294 88.0059 25.2891C87.9229 25.6432 87.8813 26.0195 87.8813 26.418ZM101.661 22.0186H103.479V30.751C103.479 31.5589 103.307 32.2451 102.964 32.8096C102.621 33.374 102.142 33.8029 101.528 34.0962C100.914 34.395 100.202 34.5444 99.3945 34.5444C99.0514 34.5444 98.6696 34.4946 98.249 34.395C97.834 34.2954 97.43 34.1349 97.0371 33.9136C96.6497 33.6978 96.326 33.4128 96.0659 33.0586L97.0039 31.8799C97.3249 32.2617 97.679 32.5412 98.0664 32.7183C98.4538 32.8953 98.8605 32.9839 99.2866 32.9839C99.7459 32.9839 100.136 32.8981 100.457 32.7266C100.784 32.5605 101.035 32.3143 101.212 31.9878C101.389 31.6613 101.478 31.2629 101.478 30.7925V24.0522L101.661 22.0186ZM95.5596 26.6089V26.4346C95.5596 25.7539 95.6426 25.1341 95.8086 24.5752C95.9746 24.0107 96.2126 23.5265 96.5225 23.1226C96.8324 22.7131 97.2087 22.4004 97.6514 22.1846C98.0941 21.9632 98.5949 21.8525 99.1538 21.8525C99.7349 21.8525 100.23 21.9577 100.64 22.168C101.055 22.3783 101.401 22.6799 101.677 23.0728C101.954 23.4601 102.17 23.925 102.325 24.4673C102.485 25.0041 102.604 25.6017 102.682 26.2603V26.8164C102.61 27.4583 102.488 28.0449 102.316 28.5762C102.145 29.1074 101.918 29.5667 101.636 29.9541C101.354 30.3415 101.005 30.6403 100.59 30.8506C100.18 31.0609 99.6961 31.166 99.1372 31.166C98.5894 31.166 98.0941 31.0526 97.6514 30.8257C97.2142 30.5988 96.8379 30.2806 96.5225 29.8711C96.2126 29.4616 95.9746 28.9801 95.8086 28.4268C95.6426 27.8678 95.5596 27.2619 95.5596 26.6089ZM97.5601 26.4346V26.6089C97.5601 27.0184 97.5988 27.4002 97.6763 27.7544C97.7593 28.1086 97.8838 28.4212 98.0498 28.6924C98.2214 28.958 98.4372 29.1683 98.6973 29.3232C98.9629 29.4727 99.2756 29.5474 99.6353 29.5474C100.106 29.5474 100.49 29.4478 100.789 29.2485C101.093 29.0493 101.326 28.7809 101.486 28.4434C101.652 28.1003 101.769 27.7184 101.835 27.2979V25.7954C101.802 25.4689 101.733 25.1646 101.627 24.8823C101.528 24.6001 101.392 24.3538 101.221 24.1436C101.049 23.9277 100.833 23.7617 100.573 23.6455C100.313 23.5238 100.006 23.4629 99.6519 23.4629C99.2922 23.4629 98.9795 23.5404 98.7139 23.6953C98.4482 23.8503 98.2297 24.0633 98.0581 24.3345C97.8921 24.6056 97.7676 24.9211 97.6846 25.2808C97.6016 25.6405 97.5601 26.0251 97.5601 26.4346ZM107.695 18.25V31H105.687V18.25H107.695ZM113.846 31.166C113.182 31.166 112.582 31.0581 112.045 30.8423C111.514 30.6209 111.06 30.3138 110.684 29.9209C110.313 29.528 110.028 29.0659 109.829 28.5347C109.629 28.0034 109.53 27.4307 109.53 26.8164V26.4844C109.53 25.7816 109.632 25.1452 109.837 24.5752C110.042 24.0052 110.327 23.5182 110.692 23.1143C111.057 22.7048 111.489 22.3921 111.987 22.1763C112.485 21.9604 113.024 21.8525 113.605 21.8525C114.247 21.8525 114.809 21.9604 115.291 22.1763C115.772 22.3921 116.17 22.6965 116.486 23.0894C116.807 23.4767 117.045 23.9388 117.2 24.4756C117.36 25.0124 117.44 25.6045 117.44 26.252V27.1069H110.501V25.6709H115.465V25.5132C115.454 25.1535 115.382 24.8159 115.249 24.5005C115.122 24.1851 114.925 23.9305 114.66 23.7368C114.394 23.5431 114.04 23.4463 113.597 23.4463C113.265 23.4463 112.969 23.5182 112.709 23.6621C112.454 23.8005 112.241 24.0024 112.07 24.2681C111.898 24.5337 111.765 24.8547 111.671 25.231C111.583 25.6017 111.539 26.0195 111.539 26.4844V26.8164C111.539 27.2093 111.591 27.5745 111.696 27.9121C111.807 28.2441 111.967 28.5347 112.178 28.7837C112.388 29.0327 112.643 29.2292 112.941 29.373C113.24 29.5114 113.581 29.5806 113.962 29.5806C114.444 29.5806 114.873 29.4837 115.249 29.29C115.625 29.0964 115.952 28.8224 116.229 28.4683L117.283 29.4893C117.089 29.7715 116.837 30.0426 116.527 30.3027C116.217 30.5573 115.838 30.7648 115.39 30.9253C114.947 31.0858 114.433 31.166 113.846 31.166ZM129.005 21.225H132.422V22.364H129.005V21.225ZM128.886 25.084H132.388V26.223H128.886V25.084ZM134.751 16.958H136.111V32.326H134.751V16.958ZM131.674 17.349H133V31.544H131.674V17.349ZM128.24 18.896H129.6C129.6 22.925 127.985 26.546 123.854 29.011L123.038 28.008C126.625 25.832 128.24 22.772 128.24 19.151V18.896ZM123.718 18.896H128.801V20.052H123.718V18.896ZM146.888 20.936H150.356V22.109H146.888V20.936ZM149.914 16.958H151.325V26.121H149.914V16.958ZM146.276 26.58C149.438 26.58 151.393 27.651 151.393 29.453C151.393 31.272 149.438 32.309 146.276 32.309C143.097 32.309 141.142 31.272 141.142 29.453C141.142 27.651 143.097 26.58 146.276 26.58ZM146.276 27.685C143.964 27.685 142.553 28.331 142.553 29.453C142.553 30.558 143.964 31.204 146.276 31.204C148.588 31.204 149.999 30.558 149.999 29.453C149.999 28.331 148.588 27.685 146.276 27.685ZM142.604 18.505H143.76V19.746C143.76 22.585 142.026 25.016 139.476 25.968L138.745 24.846C141.023 24.013 142.604 21.956 142.604 19.746V18.505ZM142.876 18.505H144.015V19.746C144.015 21.735 145.511 23.639 147.738 24.421L147.024 25.543C144.525 24.642 142.876 22.33 142.876 19.746V18.505ZM139.17 18.08H147.381V19.236H139.17V18.08ZM161.268 17.927C164.464 17.927 166.844 19.627 166.844 22.177C166.844 24.744 164.464 26.427 161.268 26.427C158.072 26.427 155.675 24.744 155.675 22.177C155.675 19.627 158.072 17.927 161.268 17.927ZM161.268 19.083C158.837 19.083 157.035 20.324 157.035 22.177C157.035 24.013 158.837 25.271 161.268 25.271C163.699 25.271 165.501 24.013 165.501 22.177C165.501 20.324 163.699 19.083 161.268 19.083ZM154.332 29.113H168.255V30.303H154.332V29.113ZM169.971 29.266H183.894V30.439H169.971V29.266ZM176.193 25.968H177.604V29.759H176.193V25.968ZM171.654 18.097H182.177V22.755H173.099V25.832H171.705V21.616H180.783V19.236H171.654V18.097ZM171.705 25.237H182.534V26.393H171.705V25.237ZM189.843 29.266H203.766V30.439H189.843V29.266ZM196.065 25.968H197.476V29.759H196.065V25.968ZM191.526 18.097H202.049V22.755H192.971V25.832H191.577V21.616H200.655V19.236H191.526V18.097ZM191.577 25.237H202.406V26.393H191.577V25.237ZM206.978 18.59H216.872V19.729H206.978V18.59ZM205.482 28.909H219.371V30.082H205.482V28.909ZM216.124 18.59H217.501V20.12C217.501 22.092 217.501 24.285 216.923 27.6L215.512 27.464C216.124 24.319 216.124 22.024 216.124 20.12V18.59ZM232.29 16.975H233.718V28.195H232.29V16.975ZM223.841 30.83H234.177V31.986H223.841V30.83ZM223.841 27.039H225.235V31.221H223.841V27.039ZM225.473 18.029C227.768 18.029 229.468 19.593 229.468 21.82C229.468 24.03 227.768 25.611 225.473 25.611C223.178 25.611 221.461 24.03 221.461 21.82C221.461 19.593 223.178 18.029 225.473 18.029ZM225.473 19.253C223.977 19.253 222.838 20.307 222.838 21.82C222.838 23.316 223.977 24.37 225.473 24.37C226.969 24.37 228.108 23.316 228.108 21.82C228.108 20.307 226.969 19.253 225.473 19.253Z" fill="#444444"/>
<defs>
<clipPath id="clip0_351_796">
<rect width="24" height="24" fill="white" transform="translate(24 13)"/>
</clipPath>
</defs>
</svg>
